<?xml version="1.0" encoding="utf-8"?><svg viewBox="0 0 101 101" xmlns="http://www.w3.org/2000/svg" xmlns:xlink="http://www.w3.org/1999/xlink"><style>:root>svg{display:none}:root>svg:target{display:block}</style><svg fill="none" viewBox="0 0 101 101" id="prop_1" xmlns="http://www.w3.org/2000/svg"><path d="M3 31h50.5l4.5-9.5h34-4.5L83 29H65.5L57 54.5H36.5l-30-15 2-8.5H3z" stroke="#fff" stroke-width="3"/><path d="M82.002 29.002l4 13.998L96 50v11.5h-5" stroke="#fff" stroke-width="3"/><path d="M71.5 29v14.5h15M62 68H41M84 84.5H20M17 84.5h-3M61 44H41M38 44h-3M92 53h-3M98.5 78.5H5M11.5 68H4M17 45L8 68" stroke="#fff" stroke-width="3"/><circle cx="77" cy="67.5" r="10" stroke="#fff" stroke-width="3"/><circle cx="26" cy="67.5" r="10" stroke="#fff" stroke-width="3"/><circle cx="77" cy="67.5" r="4" stroke="#fff" stroke-width="3"/><circle cx="26" cy="67.5" r="4" stroke="#fff" stroke-width="3"/><path d="M11 31l5-5.5 6-2.5 9 3.5 4 4.5" stroke="#fff" stroke-width="3"/><path d="M19.5 24l4.5-7 7 3.5 8-1 3.5 6h7l4 4" stroke="#fff" stroke-width="3"/></svg><svg fill="none" viewBox="0 0 101 101" id="prop_2" xmlns="http://www.w3.org/2000/svg"><path d="M83 75.5H19M58 38h-3M64 44h-3M56 50h-3M69 55h-3M64 63h-3M79 65h-3M46 60h-3M38 64h-3M35 55h-3M28 63h-3M16 75.5h-3M97.5 69.5H4M14 68.5l5.5-14L26 53l6-9 8 3 4 6 6 1.5 3 7.5 5 7M89 69l-5.25-9-2.25-9.5-8-5-4-13.165h-8L53.5 27 48 34.5 42 38l-3.5 7.5" stroke="#fff" stroke-width="3"/></svg><svg fill="none" viewBox="0 0 101 101" id="prop_3" xmlns="http://www.w3.org/2000/svg"><path d="M20.602 56.344h16.273M21.292 37.39H33.12c1.582 0 2.504.939 2.504.939.55.576 1.312 1.267 1.877 2.19.607.993.76 2.817.76 2.817s.033 1.381-.134 2.19c-.31 1.5-.506 2.337-1.565 3.443-1.248 1.304-2.19 2.191-4.381 2.191H20.602M24.043 36.45V65.87" stroke="#fff" stroke-width="3"/><circle cx="29.5" cy="50.5" r="27" stroke="#fff" stroke-width="3"/><path fill-rule="evenodd" clip-rule="evenodd" d="M72.008 79c15.74 0 28.5-12.76 28.5-28.5S87.748 22 72.008 22s-28.5 12.76-28.5 28.5S56.268 79 72.008 79zm-4.22-40.341a1 1 0 00-1 1v10.845a1 1 0 01-1 1h-6.374c-.898 0-1.34 1.09-.698 1.716l12.95 12.613a1 1 0 001.438-.044L84.54 53.175c.583-.642.127-1.671-.74-1.671h-5.575a1 1 0 01-1-1V39.659a1 1 0 00-1-1h-8.437z" fill="#E2E2E2"/></svg><svg fill="none" viewBox="0 0 101 101" id="prop_4" xmlns="http://www.w3.org/2000/svg"><circle cx="75" cy="77" r="10" stroke="#fff" stroke-width="3"/><circle cx="75" cy="77" r="4" stroke="#fff" stroke-width="3"/><circle cx="20" cy="77" r="10" stroke="#fff" stroke-width="3"/><circle cx="20" cy="77" r="4" stroke="#fff" stroke-width="3"/><path d="M61.5 76.5H43v-50h10.5s-1.502 9.04 0 14.5c1.582 5.747 3.526 9.06 8 13 5.335 4.697 9.892 6.5 17 6.5 7.108 0 17-6.5 17-6.5v22.5H88" stroke="#fff" stroke-width="3"/><path d="M57.516 34.2C57.96 23.154 67.347 15 78.5 15c11.153 0 20.539 8.154 20.984 19.2C99.948 45.678 90.09 55 78.5 55c-11.59 0-21.447-9.322-20.984-20.8z" stroke="#fff" stroke-width="3"/><path d="M71.5 32.536l6.587 6.697a1 1 0 001.464-.041L88.5 29" stroke="#fff" stroke-width="2"/><path d="M6.5 76H3V59.5L22.5 39H37v38h-3.5" stroke="#fff" stroke-width="3"/><path d="M32 45v8H18v-1.905L23.6 45H32z" stroke="#fff" stroke-width="2"/><path d="M37 35v-7l-12 6.5v.5h12z" stroke="#fff" stroke-width="3"/><path d="M86.5 27.5L90 27v3.5l-3.5-3zM69.483 33.51l.423-3.51 3.38.906-3.803 2.604z" stroke="#fff"/><path d="M89.565 27.274l.221 2.406-2.595-1.96 2.374-.445zM69.525 30.095l2.775 1.076-2.642 1.897-.133-2.973z" fill="#fff"/></svg><svg fill="none" viewBox="0 0 101 101" id="prop_5" xmlns="http://www.w3.org/2000/svg"><path d="M69 57.883H30.83a6 6 0 00-4.05 1.573L9.767 75.022a6 6 0 00-.066 8.792l8.561 8.072a6 6 0 008.359-.123l2.123-2.123a6 6 0 014.242-1.757H59.54a6 6 0 004.212-1.728l30.833-30.398a6 6 0 001.303-6.637l-.264-.615a6 6 0 00-3.867-3.406l-1.377-.393a6 6 0 00-5.269.984L69 57.883zm0 0l1.516 2.464a6 6 0 01-.867 7.387l-.392.391a6 6 0 01-4.242 1.758H45.5M70 37.383c-4.42 5.507-15.148 8.05-18.777 8.774a.926.926 0 01-1.111-1.016c.371-3.553 1.812-13.827 6.388-18.758 4.381-4.722 13.981-7.073 17.324-7.772a.93.93 0 011.129.97c-.182 3.356-1.034 12.92-4.953 17.802z" stroke="#fff" stroke-width="3"/><path d="M55.5 22.383c.748 7.186-3.49 18.124-5.255 22.3a.933.933 0 01-1.686.1c-2.275-3.97-7.909-14.436-8.188-21.195-.273-6.616 4.441-13.2 6.203-15.42a.902.902 0 011.371-.064c1.887 1.97 6.874 7.737 7.555 14.279z" stroke="#fff" stroke-width="3"/></svg><svg fill="none" viewBox="0 0 101 101" id="prop_6" xmlns="http://www.w3.org/2000/svg"><circle cx="51" cy="51" r="44.5" stroke="#fff" stroke-width="3"/><path fill-rule="evenodd" clip-rule="evenodd" d="M29.59 34.102a3 3 0 00-3 3v23.102a3 3 0 003 3h43.755a3 3 0 003-3V37.102a3 3 0 00-3-3H29.59zm4.571 5.633a1 1 0 00-1 1v3.632a1 1 0 001 1h4.572a1 1 0 001-1v-3.632a1 1 0 00-1-1H34.16zm23.408.938c0-.518.42-.938.94-.938h12.203a.939.939 0 110 1.877H58.508a.939.939 0 01-.939-.939zm6.572 3.756a.939.939 0 100 1.877h6.571a.939.939 0 100-1.877h-6.571z" fill="#fff"/><circle cx="66.491" cy="61.796" r="7.48" fill="#fff" stroke="#101010"/><circle cx="53.347" cy="63.673" r="7.48" fill="#fff" stroke="#101010"/><circle cx="59.917" cy="71.184" r="7.48" fill="#fff" stroke="#101010"/><path d="M64.144 61.327l2.817-2.817v7.51M57.574 74.421h4.569M57.768 69.1h3.32c.445 0 .703.264.703.264.155.162.369.355.528.615.17.278.213.79.213.79s.01.388-.038.616c-.087.42-.142.656-.439.966-.35.366-.615.615-1.23.615h-3.251M58.54 68.837v8.258M51 65.972l2.816.049M51.194 60.652h3.32c.445 0 .703.263.703.263.154.162.369.356.527.615.17.279.214.79.214.79s.009.389-.038.616c-.087.421-.142.656-.44.966-.35.366-.614.615-1.23.615H51M51.965 60.388v8.258" stroke="#101010"/></svg><svg version="1.1" id="telegram" x="0" y="0" viewBox="0 0 64 64" xml:space="preserve" xmlns="http://www.w3.org/2000/svg"><style>.gst0{fill:url(#gSVGID_1_)}.gst1{fill:#fff}.gst2{fill:#b5cfe4}.gst3{fill:#d2e5f1}</style><linearGradient id="gSVGID_1_" gradientUnits="userSpaceOnUse" x1="32" y1=".5" x2="32" y2="63.27"><stop offset="0" stop-color="#42bce8"/><stop offset="1" stop-color="#23a7dc"/></linearGradient><circle class="gst0" cx="32" cy="32" r="31.5"/><path class="gst1" d="M47.3 18.6L41.7 47s-.8 2-3 1l-13-10-4.7-2.2-7.9-2.7s-1.2-.4-1.3-1.4c-.1-.9 1.4-1.5 1.4-1.5l31.6-12.4c-.1.1 2.5-1.1 2.5.8z"/><path class="gst2" d="M30.7 41.9l-5.1 4.7s-.4.3-.8.1l1-8.7 4.9 3.9z"/><path class="gst3" d="M25.8 38l-1 8.7s.1.7-.8-1.3-2.9-9.6-2.9-9.6l19.5-12.3s.9-.4.5.5-15.3 14-15.3 14z"/></svg><svg version="1.1" id="viber" x="0" y="0" viewBox="0 0 64 64" xml:space="preserve" xmlns="http://www.w3.org/2000/svg"><style>.hst0{fill:#7b519d}.hst1{fill:#fff}.hst2{fill:#f1f2f2}</style><circle class="hst0" cx="32" cy="32" r="31"/><path id="h_x3C_Path_x3E_" class="hst1" d="M45.6 39.1c-1-.8-2.1-1.5-3.1-2.3-2.1-1.5-4-1.6-5.6.8-.9 1.3-2.1 1.4-3.4.8-3.5-1.6-6.3-4.1-7.9-7.7-.7-1.6-.7-3 1-4.2.9-.6 1.8-1.3 1.7-2.6-.1-1.7-4.2-7.4-5.8-8-.7-.3-1.3-.2-2 0-3.8 1.3-5.4 4.4-3.9 8.1C21 35.2 29 43 39.9 47.7c.6.3 1.3.4 1.7.5 2.5 0 5.4-2.4 6.3-4.8.8-2.3-.9-3.2-2.3-4.3z"/><path id="h_x3C_Path_x3E__1_" class="hst2" d="M33.3 16.7c8 1.2 11.7 5 12.7 13.1.1.7-.2 1.9.9 1.9s.8-1.1.9-1.8c.1-7.6-6.5-14.6-14.2-14.9-.6.1-1.8-.4-1.9.9-.1.8.9.7 1.6.8z"/><path id="h_x3C_Path_x3E__2_" class="hst2" d="M34.9 18.9c-.8-.1-1.8-.5-2 .6-.2 1.1.9 1 1.7 1.2 4.9 1.1 6.7 2.9 7.5 7.8.1.7-.1 1.8 1.1 1.6.9-.1.6-1.1.7-1.6 0-4.7-4.1-9-9-9.6z"/><path id="h_x3C_Path_x3E__3_" class="hst2" d="M35.3 22.8c-.5 0-1 .1-1.2.6-.3.8.3 1 .9 1.1 2 .3 3.1 1.5 3.3 3.5.1.5.4 1 .9.9.7-.1.8-.7.8-1.4.1-2.2-2.5-4.8-4.7-4.7z"/></svg><svg version="1.1" id="whatsapp" x="0" y="0" viewBox="0 0 64 64" xml:space="preserve" xmlns="http://www.w3.org/2000/svg"><style>.ist0{fill:#30bf39}.ist1{fill:#fff}</style><circle class="ist0" cx="32" cy="32" r="31"/><path class="ist1" d="M41.4 34.8c-.4-.2-2.5-1.4-2.9-1.5-.4-.2-.7-.2-1 .2-.3.4-1.2 1.4-1.4 1.6-.3.3-.5.3-.9.1-.4-.2-1.8-.7-3.4-2.3-1.2-1.2-2.1-2.6-2.3-3.1-.2-.4 0-.7.2-.9.2-.2.4-.5.7-.7s.3-.4.5-.7c.2-.3.1-.5 0-.8s-.9-2.4-1.2-3.3c-.3-.9-.7-.7-.9-.8-.3 0-.5-.1-.8-.1-.4 0-.9.2-1.2.5-.4.4-1.6 1.4-1.6 3.5s1.4 4.3 1.6 4.5c.2.3 2.8 4.9 7.1 6.8 4.3 1.9 4.3 1.3 5.1 1.3.8 0 2.6-1 3-1.9.4-1 .4-1.9.3-2-.2 0-.5-.1-.9-.4zm-8 10.3c-2.8 0-5.4-.8-7.7-2.3l-5.4 1.7 1.8-5.2c-1.7-2.4-2.7-5.3-2.7-8.3 0-7.8 6.3-14.1 14.1-14.1s14 6.3 14 14.1-6.3 14.1-14.1 14.1zm0-31c-9.3 0-16.9 7.6-16.9 16.9 0 3.1.8 6.1 2.4 8.7l-3.1 9.1 9.4-3c2.5 1.4 5.3 2.1 8.2 2.1 9.3 0 16.9-7.6 16.9-16.9s-7.5-16.9-16.9-16.9z"/></svg></svg>