<svg width="101" height="101" viewBox="0 0 101 101" fill="none" xmlns="http://www.w3.org/2000/svg">
<path d="M83 75.5H19" stroke="white" stroke-width="3"/>
<path d="M58 38H55" stroke="white" stroke-width="3"/>
<path d="M64 44H61" stroke="white" stroke-width="3"/>
<path d="M56 50H53" stroke="white" stroke-width="3"/>
<path d="M69 55H66" stroke="white" stroke-width="3"/>
<path d="M64 63H61" stroke="white" stroke-width="3"/>
<path d="M79 65H76" stroke="white" stroke-width="3"/>
<path d="M46 60H43" stroke="white" stroke-width="3"/>
<path d="M38 64H35" stroke="white" stroke-width="3"/>
<path d="M35 55H32" stroke="white" stroke-width="3"/>
<path d="M28 63H25" stroke="white" stroke-width="3"/>
<path d="M16 75.5H13" stroke="white" stroke-width="3"/>
<path d="M97.5 69.5H4" stroke="white" stroke-width="3"/>
<path d="M14 68.5L19.5 54.5L26 53L32 44L40 47L44 53L50 54.5L53 62L58 69" stroke="white" stroke-width="3"/>
<path d="M89 69L83.75 60L81.5 50.5L73.5 45.5L69.5 32.335H61.5L53.5 27L48 34.5L42 38L38.5 45.5" stroke="white" stroke-width="3"/>
</svg>
