<svg width="101" height="101" viewBox="0 0 101 101" fill="none" xmlns="http://www.w3.org/2000/svg">
<path d="M69 57.8827H30.8306C29.3314 57.8827 27.8866 58.4439 26.7805 59.4559L9.7663 75.022C7.19281 77.3765 7.16245 81.4216 9.7003 83.8144L18.261 91.8859C20.622 94.112 24.3251 94.0576 26.6197 91.763L28.7426 89.64C29.8679 88.5148 31.394 87.8827 32.9853 87.8827H59.5396C61.1162 87.8827 62.6294 87.2622 63.7521 86.1553L94.5851 55.7565C96.3433 54.0231 96.8601 51.3897 95.8876 49.1204L95.6237 48.5046C94.9127 46.8457 93.4926 45.5949 91.7572 45.099L90.3803 44.7056C88.5668 44.1875 86.6153 44.5522 85.1113 45.6903L69 57.8827ZM69 57.8827L70.5162 60.3466C71.9724 62.7128 71.6135 65.7692 69.6489 67.7338L69.2574 68.1253C68.1321 69.2505 66.606 69.8827 65.0147 69.8827H45.5" stroke="white" stroke-width="3"/>
<path d="M70 37.3827C65.5794 42.8896 54.8525 45.4338 51.2234 46.1572C50.5944 46.2826 50.0452 45.7791 50.1118 45.1413C50.4832 41.5875 51.9239 31.3143 56.5 26.3827C60.8814 21.6609 70.4811 19.3097 73.8242 18.6113C74.4362 18.4834 74.9861 18.9569 74.9525 19.5813C74.7713 22.9374 73.9187 32.501 70 37.3827Z" stroke="white" stroke-width="3"/>
<path d="M55.5 22.3827C56.248 29.5687 52.0106 40.5067 50.2452 44.6821C49.9344 45.417 48.9563 45.4747 48.5594 44.7824C46.2841 40.8126 40.65 30.3466 40.3712 23.5882C40.0983 16.9722 44.812 10.3882 46.5741 8.16883C46.9227 7.72969 47.5575 7.69871 47.9453 8.10368C49.832 10.0739 54.819 15.8405 55.5 22.3827Z" stroke="white" stroke-width="3"/>
</svg>
