<svg width="101" height="101" viewBox="0 0 101 101" fill="none" xmlns="http://www.w3.org/2000/svg">
<path d="M20.6016 56.344H36.8753" stroke="white" stroke-width="3"/>
<path d="M21.2922 37.39C21.2922 37.39 29.6773 37.3901 33.1198 37.39C34.7024 37.39 35.6235 38.3289 35.6235 38.3289C36.1731 38.9051 36.9362 39.5956 37.5012 40.5196C38.1079 41.5118 38.2609 43.3362 38.2609 43.3362C38.2609 43.3362 38.294 44.7174 38.1271 45.5269C37.8178 47.0267 37.6215 47.8634 36.5623 48.9694C35.3142 50.2727 34.3716 51.1601 32.1809 51.1601C29.9902 51.1601 25.6089 51.1601 25.6089 51.1601H20.6016" stroke="white" stroke-width="3"/>
<path d="M24.043 36.4509V65.8688" stroke="white" stroke-width="3"/>
<circle cx="29.5" cy="50.5" r="27" stroke="white" stroke-width="3"/>
<path fill-rule="evenodd" clip-rule="evenodd" d="M72.0078 79C87.7479 79 100.508 66.2401 100.508 50.5C100.508 34.7599 87.7479 22 72.0078 22C56.2677 22 43.5078 34.7599 43.5078 50.5C43.5078 66.2401 56.2677 79 72.0078 79ZM67.7882 38.6586C67.2359 38.6586 66.7882 39.1063 66.7882 39.6586V50.5037C66.7882 51.056 66.3405 51.5037 65.7882 51.5037H59.4136C58.5163 51.5037 58.0731 52.594 58.7158 53.22L71.6655 65.8334C72.0712 66.2285 72.7237 66.2082 73.1041 65.7887L84.5401 53.1754C85.1228 52.5327 84.6668 51.5037 83.7993 51.5037H78.2248C77.6725 51.5037 77.2248 51.056 77.2248 50.5037V39.6586C77.2248 39.1063 76.7771 38.6586 76.2248 38.6586H67.7882Z" fill="#E2E2E2"/>
</svg>
