<svg width="101" height="101" viewBox="0 0 101 101" fill="none" xmlns="http://www.w3.org/2000/svg">
<path d="M3 31H53.5L58 21.5H92H87.5L83 29H65.5L57 54.5H36.5L6.5 39.5L8.5 31H3Z" stroke="white" stroke-width="3"/>
<path d="M82.0018 29.0018L86.0014 42.9999L96.0009 50L96.0009 61.5009L91.0004 61.5009" stroke="white" stroke-width="3"/>
<path d="M71.5 29V43.5H86.5" stroke="white" stroke-width="3"/>
<path d="M62 68H41" stroke="white" stroke-width="3"/>
<path d="M84 84.5H20" stroke="white" stroke-width="3"/>
<path d="M17 84.5H14" stroke="white" stroke-width="3"/>
<path d="M61 44H41" stroke="white" stroke-width="3"/>
<path d="M38 44H35" stroke="white" stroke-width="3"/>
<path d="M92 53H89" stroke="white" stroke-width="3"/>
<path d="M98.5 78.5H5" stroke="white" stroke-width="3"/>
<path d="M11.5 68H4" stroke="white" stroke-width="3"/>
<path d="M17 45L8 68" stroke="white" stroke-width="3"/>
<circle cx="77" cy="67.5" r="10" stroke="white" stroke-width="3"/>
<circle cx="26" cy="67.5" r="10" stroke="white" stroke-width="3"/>
<circle cx="77" cy="67.5" r="4" stroke="white" stroke-width="3"/>
<circle cx="26" cy="67.5" r="4" stroke="white" stroke-width="3"/>
<path d="M11 31L16 25.5L22 23L31 26.5L35 31" stroke="white" stroke-width="3"/>
<path d="M19.5 24L24 17L31 20.5L39 19.5L42.5 25.5H49.5L53.5 29.5" stroke="white" stroke-width="3"/>
</svg>
