<svg width="101" height="101" viewBox="0 0 101 101" fill="none" xmlns="http://www.w3.org/2000/svg">
<circle cx="51" cy="51" r="44.5" stroke="white" stroke-width="3"/>
<path fill-rule="evenodd" clip-rule="evenodd" d="M29.5898 34.1021C27.933 34.1021 26.5898 35.4452 26.5898 37.102V60.2041C26.5898 61.8609 27.933 63.2041 29.5898 63.2041H73.3449C75.0018 63.2041 76.3449 61.8609 76.3449 60.2041V37.1021C76.3449 35.4452 75.0018 34.1021 73.3449 34.1021H29.5898ZM34.1613 39.7347C33.609 39.7347 33.1613 40.1824 33.1613 40.7347V44.3674C33.1613 44.9196 33.609 45.3674 34.1613 45.3674H38.7327C39.285 45.3674 39.7327 44.9196 39.7327 44.3674V40.7347C39.7327 40.1824 39.285 39.7347 38.7327 39.7347H34.1613ZM57.5694 40.6735C57.5694 40.155 57.9897 39.7347 58.5082 39.7347H70.7123C71.2308 39.7347 71.6511 40.155 71.6511 40.6735C71.6511 41.192 71.2308 41.6123 70.7123 41.6123H58.5082C57.9897 41.6123 57.5694 41.192 57.5694 40.6735ZM64.1409 44.4286C63.6224 44.4286 63.2021 44.8489 63.2021 45.3674C63.2021 45.8858 63.6224 46.3061 64.1409 46.3061H70.7123C71.2308 46.3061 71.6511 45.8858 71.6511 45.3674C71.6511 44.8489 71.2308 44.4286 70.7123 44.4286H64.1409Z" fill="white"/>
<circle cx="66.4913" cy="61.796" r="7.47959" fill="white" stroke="#101010"/>
<circle cx="53.3468" cy="63.6734" r="7.47959" fill="white" stroke="#101010"/>
<circle cx="59.9171" cy="71.1837" r="7.47959" fill="white" stroke="#101010"/>
<path d="M64.1445 61.3266L66.9609 58.5103V66.0205" stroke="#101010"/>
<path d="M57.5742 74.4213H62.1428" stroke="#101010"/>
<path d="M57.7681 69.1003C57.7681 69.1003 60.1221 69.1004 61.0885 69.1003C61.5328 69.1003 61.7914 69.3639 61.7914 69.3639C61.9457 69.5257 62.1599 69.7195 62.3185 69.9789C62.4888 70.2575 62.5318 70.7696 62.5318 70.7696C62.5318 70.7696 62.5411 71.1574 62.4942 71.3846C62.4074 71.8057 62.3523 72.0406 62.055 72.3511C61.7046 72.7169 61.4399 72.9661 60.8249 72.9661C60.2099 72.9661 58.9799 72.9661 58.9799 72.9661H57.5742" stroke="#101010"/>
<path d="M58.5391 68.8367V77.0953" stroke="#101010"/>
<path d="M51 65.9725L53.8163 66.0206" stroke="#101010"/>
<path d="M51.1939 60.6516C51.1939 60.6516 53.5479 60.6516 54.5143 60.6516C54.9586 60.6516 55.2172 60.9152 55.2172 60.9152C55.3715 61.077 55.5857 61.2708 55.7443 61.5302C55.9146 61.8087 55.9576 62.3209 55.9576 62.3209C55.9576 62.3209 55.9669 62.7086 55.92 62.9359C55.8332 63.357 55.7781 63.5918 55.4807 63.9023C55.1303 64.2682 54.8657 64.5173 54.2507 64.5173C53.6357 64.5173 52.4057 64.5173 52.4057 64.5173H51" stroke="#101010"/>
<path d="M51.9648 60.3878V68.6464" stroke="#101010"/>
</svg>
