<?xml version="1.0" encoding="utf-8"?>
<!-- Generator: Adobe Illustrator 22.1.0, SVG Export Plug-In . SVG Version: 6.00 Build 0)  -->
<svg version="1.1" id="Telegram" xmlns="http://www.w3.org/2000/svg" xmlns:xlink="http://www.w3.org/1999/xlink" x="0px" y="0px"
	 viewBox="0 0 64 64" style="enable-background:new 0 0 64 64;" xml:space="preserve">
<style type="text/css">
	.st0{fill:url(#SVGID_1_);}
	.st1{fill:#FFFFFF;}
	.st2{fill:#B5CFE4;}
	.st3{fill:#D2E5F1;}
</style>
<linearGradient id="SVGID_1_" gradientUnits="userSpaceOnUse" x1="32" y1="0.5" x2="32" y2="63.2702">
	<stop  offset="0" style="stop-color:#42BCE8"/>
	<stop  offset="1" style="stop-color:#23A7DC"/>
</linearGradient>
<circle class="st0" cx="32" cy="32" r="31.5"/>
<path class="st1" d="M47.3,18.6L41.7,47c0,0-0.8,2-3,1l-13-10L21,35.8l-7.9-2.7c0,0-1.2-0.4-1.3-1.4c-0.1-0.9,1.4-1.5,1.4-1.5
	l31.6-12.4C44.7,17.9,47.3,16.7,47.3,18.6z"/>
<path class="st2" d="M30.7,41.9l-5.1,4.7c0,0-0.4,0.3-0.8,0.1l1-8.7L30.7,41.9z"/>
<path class="st3" d="M25.8,38l-1,8.7c0,0,0.1,0.7-0.8-1.3c-0.9-2-2.9-9.6-2.9-9.6l19.5-12.3c0,0,0.9-0.4,0.5,0.5S25.8,38,25.8,38z"
	/>
</svg>
