<svg width="160" height="45" viewBox="0 0 160 45" fill="none" xmlns="http://www.w3.org/2000/svg">
<path d="M0.90625 41.8183V35.7441H1.93025V38.2576H5.09534V35.7441H6.11934V41.8183H5.09534V39.1652H1.93025V41.8183H0.90625Z" fill="white"/>
<path d="M13.9491 41.9347C13.344 41.9347 12.8087 41.7912 12.3433 41.5041C11.8778 41.2171 11.5132 40.8331 11.2494 40.3521C10.9857 39.8712 10.8538 39.3475 10.8538 38.7812C10.8538 38.2072 10.9857 37.6835 11.2494 37.2103C11.5132 36.7371 11.8778 36.357 12.3433 36.0699C12.8165 35.7829 13.3556 35.6394 13.9607 35.6394C14.5736 35.6394 15.1049 35.7868 15.5549 36.0816C16.0126 36.3686 16.3656 36.7487 16.6138 37.222C16.8698 37.6874 16.9978 38.1916 16.9978 38.7347C16.9978 38.9053 16.99 39.0372 16.9745 39.1303H11.936C11.967 39.5259 12.0756 39.8789 12.2618 40.1892C12.4557 40.4918 12.704 40.7323 13.0065 40.9107C13.3091 41.0813 13.6349 41.1667 13.984 41.1667C14.3563 41.1667 14.7054 41.0736 15.0313 40.8874C15.3648 40.7012 15.5937 40.4569 15.7178 40.1543L16.6022 40.3987C16.4082 40.8486 16.0708 41.2171 15.5898 41.5041C15.1088 41.7912 14.5619 41.9347 13.9491 41.9347ZM11.9011 38.4205H16.0436C16.0126 38.0249 15.9001 37.6758 15.7062 37.3732C15.5122 37.0707 15.264 36.8341 14.9614 36.6634C14.6589 36.4927 14.3253 36.4074 13.9607 36.4074C13.6039 36.4074 13.2742 36.4927 12.9716 36.6634C12.6691 36.8341 12.4208 37.0707 12.2269 37.3732C12.0407 37.6758 11.9321 38.0249 11.9011 38.4205Z" fill="white"/>
<path d="M24.8968 41.9347C24.4003 41.9347 23.9581 41.8106 23.5703 41.5623C23.1824 41.3141 22.8759 40.9999 22.651 40.6198V44.2969H21.627V35.7441H22.5346V36.8845C22.7751 36.5121 23.0893 36.2135 23.4772 35.9885C23.865 35.7558 24.2878 35.6394 24.7455 35.6394C25.1644 35.6394 25.5484 35.7247 25.8975 35.8954C26.2466 36.0661 26.5492 36.2988 26.8052 36.5936C27.0612 36.8884 27.259 37.2258 27.3986 37.606C27.546 37.9783 27.6197 38.3701 27.6197 38.7812C27.6197 39.3553 27.5033 39.8828 27.2706 40.3638C27.0456 40.8447 26.7276 41.2287 26.3164 41.5158C25.9053 41.795 25.4321 41.9347 24.8968 41.9347ZM24.5826 41.0503C24.986 41.0503 25.3351 40.9417 25.6299 40.7245C25.9247 40.5073 26.1535 40.2241 26.3164 39.875C26.4871 39.526 26.5724 39.1613 26.5724 38.7812C26.5724 38.3701 26.4793 37.9938 26.2932 37.6525C26.1147 37.3112 25.8665 37.0396 25.5484 36.8379C25.2381 36.6285 24.8852 36.5238 24.4895 36.5238C24.249 36.5238 23.993 36.5858 23.7215 36.7099C23.4578 36.8341 23.225 37.0009 23.0233 37.2103C22.8294 37.412 22.7053 37.637 22.651 37.8852V39.619C22.8216 40.0224 23.0815 40.3638 23.4306 40.643C23.7875 40.9146 24.1715 41.0503 24.5826 41.0503Z" fill="white"/>
<path d="M32.9197 44.3667C32.6637 44.3667 32.3922 44.2891 32.1052 44.134L32.4543 43.4358C32.5861 43.5133 32.718 43.5521 32.8499 43.5521C33.23 43.5521 33.5636 43.1992 33.8506 42.4932L34.1415 41.7601L31.4768 35.7441H32.559L34.607 40.7827L36.4572 35.7441H37.4695L34.6303 42.8074C34.4208 43.3272 34.1687 43.715 33.8739 43.971C33.5791 44.2348 33.261 44.3667 32.9197 44.3667Z" fill="white"/>
<path d="M41.3203 43.2496V40.9107H41.4483C41.6732 40.9107 41.8749 40.8176 42.0533 40.6314C42.2395 40.4375 42.3908 40.0961 42.5072 39.6074C42.6235 39.1109 42.6933 38.4089 42.7166 37.5012L42.7748 35.7441H46.9057V40.9107H47.7319V43.2496H46.8243V41.8183H42.2279V43.2496H41.3203ZM42.8795 40.9107H45.8817V36.6518H43.6824L43.6475 37.5943C43.6165 38.5873 43.535 39.3398 43.4032 39.8518C43.279 40.3638 43.1045 40.7167 42.8795 40.9107Z" fill="white"/>
<path d="M52.3494 41.8183V35.7441H53.3734V38.2576H56.5385V35.7441H57.5625V41.8183H56.5385V39.1652H53.3734V41.8183H52.3494Z" fill="white"/>
<path d="M62.6926 41.8183V35.7441H63.7166V37.8154H64.9501C65.6638 37.8154 66.2029 37.9977 66.5675 38.3623C66.9399 38.7192 67.1261 39.1885 67.1261 39.7703C67.1261 40.3521 66.9476 40.8409 66.5908 41.2365C66.234 41.6244 65.7103 41.8183 65.0199 41.8183H62.6926ZM68.1733 41.8183V35.7558H69.1973V41.8183H68.1733ZM63.7166 41.0154H64.8803C65.3069 41.0154 65.6133 40.8952 65.7995 40.6547C65.9935 40.4064 66.0904 40.1194 66.0904 39.7936C66.0904 39.4755 66.0012 39.2001 65.8228 38.9674C65.6444 38.7347 65.3224 38.6183 64.857 38.6183H63.7166V41.0154Z" fill="white"/>
<path d="M77.0309 41.9347C76.4258 41.9347 75.8905 41.7912 75.4251 41.5041C74.9596 41.2171 74.595 40.8331 74.3313 40.3521C74.0675 39.8712 73.9356 39.3475 73.9356 38.7812C73.9356 38.2072 74.0675 37.6835 74.3313 37.2103C74.595 36.7371 74.9596 36.357 75.4251 36.0699C75.8983 35.7829 76.4374 35.6394 77.0425 35.6394C77.6554 35.6394 78.1868 35.7868 78.6367 36.0816C79.0944 36.3686 79.4474 36.7487 79.6956 37.222C79.9516 37.6874 80.0796 38.1916 80.0796 38.7347C80.0796 38.9053 80.0719 39.0372 80.0563 39.1303H75.0178C75.0488 39.5259 75.1574 39.8789 75.3436 40.1892C75.5376 40.4918 75.7858 40.7323 76.0883 40.9107C76.3909 41.0813 76.7167 41.1667 77.0658 41.1667C77.4382 41.1667 77.7872 41.0736 78.1131 40.8874C78.4466 40.7012 78.6755 40.4569 78.7996 40.1543L79.684 40.3987C79.49 40.8486 79.1526 41.2171 78.6716 41.5041C78.1906 41.7912 77.6437 41.9347 77.0309 41.9347ZM74.9829 38.4205H79.1254C79.0944 38.0249 78.9819 37.6758 78.788 37.3732C78.594 37.0707 78.3458 36.8341 78.0432 36.6634C77.7407 36.4927 77.4071 36.4074 77.0425 36.4074C76.6857 36.4074 76.356 36.4927 76.0534 36.6634C75.7509 36.8341 75.5026 37.0707 75.3087 37.3732C75.1225 37.6758 75.0139 38.0249 74.9829 38.4205Z" fill="white"/>
<path d="M94.4127 41.9347C93.9162 41.9347 93.474 41.8106 93.0862 41.5623C92.6983 41.3141 92.3919 40.9999 92.1669 40.6198V44.2969H91.1429V35.7441H92.0505V36.8845C92.291 36.5121 92.6052 36.2135 92.9931 35.9885C93.381 35.7558 93.8037 35.6394 94.2614 35.6394C94.6804 35.6394 95.0644 35.7247 95.4134 35.8954C95.7625 36.0661 96.0651 36.2988 96.3211 36.5936C96.5771 36.8884 96.7749 37.2258 96.9145 37.606C97.0619 37.9783 97.1356 38.3701 97.1356 38.7812C97.1356 39.3553 97.0193 39.8828 96.7865 40.3638C96.5616 40.8447 96.2435 41.2287 95.8324 41.5158C95.4212 41.795 94.948 41.9347 94.4127 41.9347ZM94.0985 41.0503C94.5019 41.0503 94.851 40.9417 95.1458 40.7245C95.4406 40.5073 95.6694 40.2241 95.8324 39.875C96.003 39.526 96.0883 39.1613 96.0883 38.7812C96.0883 38.3701 95.9953 37.9938 95.8091 37.6525C95.6306 37.3112 95.3824 37.0396 95.0644 36.8379C94.7541 36.6285 94.4011 36.5238 94.0054 36.5238C93.765 36.5238 93.509 36.5858 93.2374 36.7099C92.9737 36.8341 92.741 37.0009 92.5393 37.2103C92.3453 37.412 92.2212 37.637 92.1669 37.8852V39.619C92.3376 40.0224 92.5974 40.3638 92.9465 40.643C93.3034 40.9146 93.6874 41.0503 94.0985 41.0503Z" fill="white"/>
<path d="M104.572 41.9347C103.967 41.9347 103.431 41.7912 102.966 41.5041C102.501 41.2171 102.136 40.8331 101.872 40.3521C101.608 39.8712 101.477 39.3475 101.477 38.7812C101.477 38.2072 101.608 37.6835 101.872 37.2103C102.136 36.7371 102.501 36.357 102.966 36.0699C103.439 35.7829 103.978 35.6394 104.583 35.6394C105.196 35.6394 105.728 35.7868 106.178 36.0816C106.635 36.3686 106.988 36.7487 107.237 37.222C107.493 37.6874 107.621 38.1916 107.621 38.7347C107.621 38.9053 107.613 39.0372 107.597 39.1303H102.559C102.59 39.5259 102.698 39.8789 102.885 40.1892C103.078 40.4918 103.327 40.7323 103.629 40.9107C103.932 41.0813 104.258 41.1667 104.607 41.1667C104.979 41.1667 105.328 41.0736 105.654 40.8874C105.988 40.7012 106.216 40.4569 106.341 40.1543L107.225 40.3987C107.031 40.8486 106.693 41.2171 106.213 41.5041C105.732 41.7912 105.185 41.9347 104.572 41.9347ZM102.524 38.4205H106.666C106.635 38.0249 106.523 37.6758 106.329 37.3732C106.135 37.0707 105.887 36.8341 105.584 36.6634C105.282 36.4927 104.948 36.4074 104.583 36.4074C104.227 36.4074 103.897 36.4927 103.594 36.6634C103.292 36.8341 103.044 37.0707 102.85 37.3732C102.663 37.6758 102.555 38.0249 102.524 38.4205Z" fill="white"/>
<path d="M114.938 41.9347C114.333 41.9347 113.797 41.7912 113.332 41.5041C112.866 41.2093 112.502 40.8215 112.238 40.3405C111.974 39.8595 111.842 39.3359 111.842 38.7696C111.842 38.1955 111.97 37.6719 112.226 37.1987C112.482 36.7255 112.843 36.3492 113.309 36.0699C113.774 35.7829 114.313 35.6394 114.926 35.6394C115.523 35.6394 116.043 35.7752 116.485 36.0467C116.935 36.3104 117.269 36.6673 117.486 37.1172L116.485 37.4314C116.33 37.1444 116.113 36.9233 115.834 36.7681C115.554 36.6052 115.244 36.5238 114.903 36.5238C114.53 36.5238 114.189 36.6207 113.879 36.8147C113.576 37.0086 113.336 37.2763 113.157 37.6176C112.979 37.9512 112.89 38.3352 112.89 38.7696C112.89 39.1963 112.979 39.5841 113.157 39.9332C113.344 40.2746 113.588 40.5461 113.89 40.7478C114.201 40.9495 114.542 41.0503 114.914 41.0503C115.155 41.0503 115.384 41.0076 115.601 40.9223C115.826 40.837 116.02 40.7245 116.183 40.5849C116.353 40.4375 116.47 40.2784 116.532 40.1078L117.533 40.4103C117.354 40.8525 117.028 41.2171 116.555 41.5041C116.09 41.7912 115.551 41.9347 114.938 41.9347Z" fill="white"/>
<path d="M122.838 44.3667C122.582 44.3667 122.31 44.2891 122.023 44.134L122.372 43.4358C122.504 43.5133 122.636 43.5521 122.768 43.5521C123.148 43.5521 123.482 43.1992 123.769 42.4932L124.06 41.7601L121.395 35.7441H122.477L124.525 40.7827L126.375 35.7441H127.388L124.548 42.8074C124.339 43.3272 124.087 43.715 123.792 43.971C123.497 44.2348 123.179 44.3667 122.838 44.3667Z" fill="white"/>
<path d="M135.183 41.9347C134.687 41.9347 134.245 41.8106 133.857 41.5623C133.469 41.3141 133.162 40.9999 132.937 40.6198V44.2969H131.913V35.7441H132.821V36.8845C133.061 36.5121 133.376 36.2135 133.764 35.9885C134.151 35.7558 134.574 35.6394 135.032 35.6394C135.451 35.6394 135.835 35.7247 136.184 35.8954C136.533 36.0661 136.836 36.2988 137.092 36.5936C137.348 36.8884 137.545 37.2258 137.685 37.606C137.832 37.9783 137.906 38.3701 137.906 38.7812C137.906 39.3553 137.79 39.8828 137.557 40.3638C137.332 40.8447 137.014 41.2287 136.603 41.5158C136.192 41.795 135.718 41.9347 135.183 41.9347ZM134.869 41.0503C135.272 41.0503 135.621 40.9417 135.916 40.7245C136.211 40.5073 136.44 40.2241 136.603 39.875C136.773 39.526 136.859 39.1613 136.859 38.7812C136.859 38.3701 136.766 37.9938 136.58 37.6525C136.401 37.3112 136.153 37.0396 135.835 36.8379C135.525 36.6285 135.172 36.5238 134.776 36.5238C134.535 36.5238 134.279 36.5858 134.008 36.7099C133.744 36.8341 133.511 37.0009 133.31 37.2103C133.116 37.412 132.992 37.637 132.937 37.8852V39.619C133.108 40.0224 133.368 40.3638 133.717 40.643C134.074 40.9146 134.458 41.0503 134.869 41.0503Z" fill="white"/>
<path d="M145.342 41.9347C144.737 41.9347 144.202 41.7912 143.736 41.5041C143.271 41.2093 142.906 40.8215 142.643 40.3405C142.379 39.8595 142.247 39.3359 142.247 38.7696C142.247 38.1955 142.375 37.6719 142.631 37.1987C142.887 36.7255 143.248 36.3492 143.713 36.0699C144.179 35.7829 144.718 35.6394 145.331 35.6394C145.928 35.6394 146.448 35.7752 146.89 36.0467C147.34 36.3104 147.673 36.6673 147.891 37.1172L146.89 37.4314C146.735 37.1444 146.518 36.9233 146.238 36.7681C145.959 36.6052 145.649 36.5238 145.307 36.5238C144.935 36.5238 144.594 36.6207 144.283 36.8147C143.981 37.0086 143.74 37.2763 143.562 37.6176C143.383 37.9512 143.294 38.3352 143.294 38.7696C143.294 39.1963 143.383 39.5841 143.562 39.9332C143.748 40.2746 143.992 40.5461 144.295 40.7478C144.605 40.9495 144.947 41.0503 145.319 41.0503C145.559 41.0503 145.788 41.0076 146.006 40.9223C146.231 40.837 146.424 40.7245 146.587 40.5849C146.758 40.4375 146.874 40.2784 146.936 40.1078L147.937 40.4103C147.759 40.8525 147.433 41.2171 146.96 41.5041C146.494 41.7912 145.955 41.9347 145.342 41.9347Z" fill="white"/>
<path d="M152.577 41.8183V35.7441H153.601V37.8154H154.834C155.548 37.8154 156.087 37.9977 156.452 38.3623C156.824 38.7192 157.01 39.1885 157.01 39.7703C157.01 40.3521 156.832 40.8409 156.475 41.2365C156.118 41.6244 155.594 41.8183 154.904 41.8183H152.577ZM158.057 41.8183V35.7558H159.081V41.8183H158.057ZM153.601 41.0154H154.764C155.191 41.0154 155.497 40.8952 155.684 40.6547C155.878 40.4064 155.975 40.1194 155.975 39.7936C155.975 39.4755 155.885 39.2001 155.707 38.9674C155.528 38.7347 155.207 38.6183 154.741 38.6183H153.601V41.0154Z" fill="white"/>
<path d="M9.34557 23.1709C8.57757 23.1709 7.88812 23.136 7.27721 23.0662C6.68375 22.9964 6.02921 22.8655 5.31357 22.6735C4.51066 22.464 3.84739 22.1935 3.32375 21.8618C2.80012 21.5127 2.36375 21.0327 2.01466 20.4218C1.64812 19.8109 1.46484 19.0865 1.46484 18.2487V10.7869C1.46484 7.36582 4.09175 5.65527 9.34557 5.65527C10.6896 5.65527 12.4874 5.84727 14.739 6.23127V9.29455C12.7143 8.80582 10.9339 8.56145 9.39794 8.56145C8.75212 8.56145 8.24594 8.57891 7.87939 8.61382C7.5303 8.64873 7.16375 8.736 6.77975 8.87564C5.95939 9.15491 5.54921 9.77454 5.54921 10.7345V17.9607C5.54921 19.4967 6.9543 20.2647 9.76448 20.2647C10.9688 20.2647 12.6619 20.0116 14.8438 19.5055V22.5949C12.9761 22.9789 11.1434 23.1709 9.34557 23.1709Z" fill="white"/>
<path d="M21.9568 5.91709H26.9314L33.0579 22.9091H28.9212L27.4026 18.432H21.1975L19.7052 22.9091H15.6732L21.9568 5.91709ZM26.5125 15.7091L24.3655 9.32073H24.2608L22.1139 15.7091H26.5125Z" fill="white"/>
<path d="M34.9422 5.91709H40.7546L44.9436 18.0655L49.0804 5.91709H54.5524V22.9091H50.8607V10.3418H50.7822L46.4884 22.9091H43.2156L38.7909 10.3418H38.6862V22.9091H34.9422V5.91709Z" fill="white"/>
<path d="M65.8805 23.1709C64.938 23.1709 64.0652 23.1098 63.2623 22.9876C62.4769 22.8655 61.6565 22.656 60.8012 22.3593C59.8761 22.0451 59.1518 21.5389 58.6281 20.8407C58.1045 20.1251 57.8427 19.2611 57.8427 18.2487V10.8131C57.8427 9.97527 58.026 9.22473 58.3925 8.56145C58.7765 7.89818 59.2652 7.37455 59.8587 6.99055C60.3823 6.65891 61.0281 6.37964 61.7961 6.15273C62.5641 5.92582 63.2798 5.78618 63.9431 5.73382C64.554 5.68145 65.1998 5.65527 65.8805 5.65527C66.6834 5.65527 67.3816 5.69018 67.975 5.76C68.5685 5.81236 69.2318 5.93455 69.9649 6.12655C70.8027 6.37091 71.4921 6.66764 72.0332 7.01673C72.5743 7.36582 73.0281 7.85455 73.3947 8.48291C73.7787 9.12873 73.9707 9.90546 73.9707 10.8131V18.2487C73.9707 19.1913 73.7176 20.0029 73.2114 20.6836C72.7227 21.3644 72.042 21.8793 71.1692 22.2284C69.5983 22.8567 67.8354 23.1709 65.8805 23.1709ZM65.9329 20.2647C66.5089 20.2647 66.9889 20.2473 67.3729 20.2124C67.7743 20.16 68.1845 20.0727 68.6034 19.9505C69.0223 19.8284 69.3365 19.6276 69.546 19.3484C69.7729 19.0516 69.8863 18.6851 69.8863 18.2487V10.7869C69.8863 9.984 69.5634 9.41673 68.9176 9.08509C68.2718 8.736 67.2681 8.56145 65.9067 8.56145C64.5452 8.56145 63.5416 8.72727 62.8958 9.05891C62.25 9.39055 61.9271 9.96655 61.9271 10.7869V18.2487C61.9271 18.6851 62.0405 19.0516 62.2674 19.3484C62.4943 19.6276 62.826 19.8284 63.2623 19.9505C63.6812 20.0727 64.0827 20.16 64.4667 20.2124C64.8681 20.2473 65.3569 20.2647 65.9329 20.2647Z" fill="white"/>
<path d="M84.7717 23.1709C84.0037 23.1709 83.3143 23.136 82.7033 23.0662C82.1099 22.9964 81.4553 22.8655 80.7397 22.6735C79.9368 22.464 79.2735 22.1935 78.7499 21.8618C78.2263 21.5127 77.7899 21.0327 77.4408 20.4218C77.0743 19.8109 76.891 19.0865 76.891 18.2487V10.7869C76.891 7.36582 79.5179 5.65527 84.7717 5.65527C86.1157 5.65527 87.9135 5.84727 90.1652 6.23127V9.29455C88.1404 8.80582 86.3601 8.56145 84.8241 8.56145C84.1783 8.56145 83.6721 8.57891 83.3055 8.61382C82.9564 8.64873 82.5899 8.736 82.2059 8.87564C81.3855 9.15491 80.9753 9.77454 80.9753 10.7345V17.9607C80.9753 19.4967 82.3804 20.2647 85.1906 20.2647C86.395 20.2647 88.0881 20.0116 90.2699 19.5055V22.5949C88.4023 22.9789 86.5695 23.1709 84.7717 23.1709Z" fill="white"/>
<path d="M96.807 8.82327H91.5706V5.91709H106.101V8.82327H100.891V22.9091H96.807V8.82327Z" fill="white"/>
<path d="M108.451 5.91709H115.258C116.916 5.91709 118.225 6.03055 119.185 6.25745C120.163 6.48436 120.87 6.88582 121.306 7.46182C121.76 8.02036 121.987 8.80582 121.987 9.81818V13.0385C121.987 14.1556 121.742 15.0284 121.254 15.6567C120.782 16.2851 120.023 16.7302 118.976 16.992C117.946 17.2538 116.55 17.3847 114.787 17.3847H112.535V22.9091H108.451V5.91709ZM115.127 14.5833C116.192 14.5833 116.942 14.4611 117.379 14.2167C117.815 13.9549 118.033 13.5185 118.033 12.9076V10.1847C118.033 9.62618 117.824 9.25964 117.405 9.08509C117.003 8.91055 116.227 8.82327 115.075 8.82327H112.535V14.5833H115.127Z" fill="white"/>
<path d="M132.537 23.1709C131.594 23.1709 130.721 23.1098 129.919 22.9876C129.133 22.8655 128.313 22.656 127.457 22.3593C126.532 22.0451 125.808 21.5389 125.284 20.8407C124.761 20.1251 124.499 19.2611 124.499 18.2487V10.8131C124.499 9.97527 124.682 9.22473 125.049 8.56145C125.433 7.89818 125.921 7.37455 126.515 6.99055C127.039 6.65891 127.684 6.37964 128.452 6.15273C129.22 5.92582 129.936 5.78618 130.599 5.73382C131.21 5.68145 131.856 5.65527 132.537 5.65527C133.34 5.65527 134.038 5.69018 134.631 5.76C135.225 5.81236 135.888 5.93455 136.621 6.12655C137.459 6.37091 138.148 6.66764 138.689 7.01673C139.231 7.36582 139.684 7.85455 140.051 8.48291C140.435 9.12873 140.627 9.90546 140.627 10.8131V18.2487C140.627 19.1913 140.374 20.0029 139.868 20.6836C139.379 21.3644 138.698 21.8793 137.825 22.2284C136.255 22.8567 134.492 23.1709 132.537 23.1709ZM132.589 20.2647C133.165 20.2647 133.645 20.2473 134.029 20.2124C134.431 20.16 134.841 20.0727 135.26 19.9505C135.679 19.8284 135.993 19.6276 136.202 19.3484C136.429 19.0516 136.543 18.6851 136.543 18.2487V10.7869C136.543 9.984 136.22 9.41673 135.574 9.08509C134.928 8.736 133.924 8.56145 132.563 8.56145C131.201 8.56145 130.198 8.72727 129.552 9.05891C128.906 9.39055 128.583 9.96655 128.583 10.7869V18.2487C128.583 18.6851 128.697 19.0516 128.924 19.3484C129.151 19.6276 129.482 19.8284 129.919 19.9505C130.337 20.0727 130.739 20.16 131.123 20.2124C131.524 20.2473 132.013 20.2647 132.589 20.2647Z" fill="white"/>
<path d="M143.914 5.91709H147.998V17.5418L155.329 5.91709H159.413V22.9091H155.329V11.1011L147.998 22.9091H143.914V5.91709ZM151.69 4.11055C149.962 4.11055 148.653 3.73527 147.762 2.98473C146.872 2.21673 146.427 1.22182 146.427 0H149.7C149.787 0.750546 149.979 1.28291 150.276 1.59709C150.59 1.91127 151.061 2.06836 151.69 2.06836C152.318 2.06836 152.781 1.91127 153.077 1.59709C153.392 1.28291 153.592 0.750546 153.68 0H156.952C156.952 1.22182 156.507 2.21673 155.617 2.98473C154.727 3.73527 153.418 4.11055 151.69 4.11055Z" fill="white"/>
<path d="M0 28.7273H160V29.4546H0V28.7273Z" fill="white"/>
</svg>
